<?xml version="1.0" encoding="utf-8"?>
<!-- Generator: Adobe Illustrator 16.0.0, SVG Export Plug-In . SVG Version: 6.00 Build 0)  -->
<!DOCTYPE svg PUBLIC "-//W3C//DTD SVG 1.1//EN" "http://www.w3.org/Graphics/SVG/1.1/DTD/svg11.dtd">
<svg version="1.1" id="Layer_1" xmlns="http://www.w3.org/2000/svg" xmlns:xlink="http://www.w3.org/1999/xlink" x="0px" y="0px"
	 width="218px" height="34px" viewBox="0 0 218 34" enable-background="new 0 0 218 34" xml:space="preserve">
<g>
	<path fill="#FFFFFF" d="M9.227,10.023H4.713H3.007H2.769c-0.401,0-0.725,0.322-0.725,0.725v0.229v15.993v0.397
		c0,0.4,0.324,0.726,0.725,0.726h1.944c0.4,0,0.726-0.324,0.726-0.726v-0.397h0.005v-4.966h4.012c3.58,0,6.092-2.31,6.092-5.891
		C15.548,12.612,13.467,10.023,9.227,10.023z M8.82,19.161H5.444v-6.295h3.249c1.956,0,3.301,0.736,3.301,3.248
		C11.994,17.892,10.954,19.161,8.82,19.161z"/>
	<path fill="#FFFFFF" d="M28.56,16.576L28.56,16.576l-0.001-0.596c0-0.399-0.324-0.725-0.725-0.725h-1.645
		c-0.4,0-0.726,0.325-0.726,0.725v0.596h-0.002v5.579c0,1.55-0.71,3.25-3.044,3.25c-1.566,0-2.277-0.754-2.285-2.508v-6.916
		c0-0.399-0.325-0.725-0.726-0.725h-1.645c-0.4,0-0.726,0.325-0.726,0.725v0.288h-0.002v7.486c0,3.731,2.514,4.646,4.696,4.646
		c1.751,0,2.995-0.687,3.68-1.574h0.051v0.511h0.002v0.033c0,0.399,0.325,0.725,0.726,0.725h1.645c0.4,0,0.725-0.324,0.725-0.725
		v-0.033h0.001L28.56,16.576L28.56,16.576z"/>
	<path fill="#FFFFFF" d="M37.372,14.947c-1.524,0-2.716,0.533-3.655,1.395v-4.354h0.001v-1.243c0-0.399-0.326-0.724-0.727-0.724
		h-1.647c-0.401,0-0.727,0.323-0.727,0.724v1.244h0.003v13.343h-0.003v2.037c0,0.4,0.325,0.727,0.727,0.727h1.647
		c0.4,0,0.727-0.325,0.727-0.727v-0.517h0.051c0.76,0.914,1.751,1.548,3.604,1.548c3.301,0,5.587-3.021,5.587-6.727
		C42.959,17.968,40.673,14.947,37.372,14.947z M36.662,25.559c-2.336,0-3.021-2.031-3.047-3.885
		c0.026-1.853,0.711-3.884,3.047-3.884c2.335,0,3.021,2.031,3.046,3.884C39.683,23.527,38.997,25.559,36.662,25.559z"/>
	<path fill="#1799D5" d="M61.877,10.74l-0.006-0.005c-0.007-0.396-0.327-0.712-0.723-0.712h-0.045h-3.705h-0.029v0.003
		c-0.341,0.014-0.62,0.26-0.683,0.587l-3.159,13.421h-0.053L50.308,10.61c-0.002-0.009-0.004-0.019-0.006-0.026l-0.01-0.042h-0.004
		c-0.086-0.292-0.35-0.506-0.667-0.517v-0.002h-0.024h-3.92h-0.01c-0.39,0-0.705,0.307-0.722,0.692l-0.002,0.002v0.025
		c0,0.001-0.001,0.002-0.001,0.004v16.621c0,0.4,0.324,0.726,0.725,0.726h1.826c0.4,0,0.725-0.324,0.725-0.726v-0.175h0.001v-14.01
		l0.09-0.008l3.339,14.17h0.001l0.005,0.022c0.092,0.392,0.335,0.712,0.723,0.724v0.004h2.097l0.004-0.004
		c0.391-0.01,0.623-0.33,0.716-0.724l0.021-0.085l0.002-0.003l0.657-2.789l1.24-5.249h-0.003l1.468-6.224h0.052v0.166h-0.007v14.185
		c0,0.4,0.326,0.727,0.727,0.727h1.799c0.4,0,0.725-0.325,0.725-0.727v-0.186h0.005V10.74H61.877z"/>
	<path fill="#1799D5" d="M83.274,15.251h-1.581v-3.817c0-0.401-0.324-0.727-0.724-0.727h-1.646c-0.402,0-0.725,0.325-0.725,0.727
		v3.817h-1.586c-0.321,0-0.584,0.26-0.584,0.582v1.308c0,0.321,0.263,0.581,0.584,0.581h1.586v9.646c0,0.4,0.322,0.726,0.725,0.726
		h1.646c0.399,0,0.724-0.324,0.724-0.726v-9.646h1.581c0.324,0,0.584-0.26,0.584-0.581v-1.308
		C83.858,15.511,83.599,15.251,83.274,15.251z"/>
	<g>
		<g>
			<path fill="#1799D5" d="M88.71,27.368c0,0.4-0.325,0.726-0.727,0.726h-1.645c-0.4,0-0.724-0.324-0.724-0.726V15.979
				c0-0.4,0.323-0.726,0.724-0.726h1.645c0.401,0,0.727,0.325,0.727,0.726V27.368z"/>
		</g>
		<g>
			<ellipse fill="#1799D5" cx="87.154" cy="11.593" rx="1.59" ry="1.685"/>
		</g>
	</g>
	<path fill="#1799D5" d="M101.721,23.217h-1.305c-0.492,0-0.77,0.311-1.025,0.775l-0.031,0.062
		c-0.531,0.902-1.433,1.502-2.453,1.502c-2.219,0-3.335-1.881-3.335-3.885s1.116-3.884,3.335-3.884c1.021,0,1.922,0.6,2.453,1.503
		l0.031,0.062c0.256,0.466,0.533,0.774,1.025,0.774h1.305c0.625,0,0.886-0.393,0.771-0.908l-0.007-0.022
		c-0.132-0.513-0.316-0.982-0.547-1.412l-0.034-0.084c-0.877-1.534-2.371-2.755-4.997-2.755c-4.173,0-6.586,2.894-6.586,6.726
		s2.413,6.727,6.586,6.727c2.626,0,4.12-1.219,4.997-2.755l0.034-0.083c0.23-0.432,0.415-0.901,0.547-1.412l0.007-0.023
		C102.606,23.611,102.346,23.217,101.721,23.217z"/>
	<path fill="#1799D5" d="M75.246,19.161c0-3.655-2.768-4.214-5.533-4.214c-2.654,0-5.171,1.034-5.457,3.676h-0.001
		c0,0.001,0,0.003,0,0.004c-0.001,0.005-0.002,0.01-0.002,0.016l0.002,0.008c-0.018,0.389,0.085,0.694,0.658,0.731l1.638,0.097
		c0.22,0.012,0.42-0.077,0.562-0.225h0.007l0.009-0.017c0.078-0.087,0.137-0.192,0.165-0.312l0.004-0.007
		c0.167-1.209,0.836-1.587,2.415-1.587c1.345,0,2.436,0.355,2.436,1.625v0.381c-0.786,0.279-2.233,0.533-3.352,0.763l-1.295,0.252
		c-1.903,0.382-3.908,1.499-3.908,4.012c0,2.487,1.929,4.036,4.365,4.036c1.601,0,2.997-0.507,4.189-1.473
		c0,0.005,0.001,0.008,0.002,0.011v0.431c0,0.4,0.324,0.727,0.725,0.727h0.897l0.001,0.002l0.002-0.002h0.745
		c0.4,0,0.725-0.325,0.725-0.727v-1.566h0.001V19.161z M72.148,23.502c0,1.649-1.854,2.361-3.301,2.361
		c-1.117,0-2.005-0.635-2.005-1.602c0-1.217,0.965-1.549,2.132-1.775l1.702-0.356c0.559-0.101,1.066-0.254,1.472-0.457V23.502z"/>
</g>
<g>
	<linearGradient id="SVGID_1_" gradientUnits="userSpaceOnUse" x1="111.7061" y1="27.4102" x2="111.7061" y2="10.9619">
		<stop  offset="0" style="stop-color:#99999A;stop-opacity:0.5"/>
		<stop  offset="1" style="stop-color:#99999A"/>
	</linearGradient>
	<path fill="url(#SVGID_1_)" d="M110.497,10.962L104.07,27.41h2.258l1.842-4.952h6.957l1.797,4.952h2.418l-6.427-16.448H110.497z
		 M108.861,20.613l2.788-7.669h0.046l2.741,7.669H108.861z"/>
	<linearGradient id="SVGID_2_" gradientUnits="userSpaceOnUse" x1="125.5645" y1="27.4102" x2="125.5645" y2="15.2236">
		<stop  offset="0" style="stop-color:#99999A;stop-opacity:0.5"/>
		<stop  offset="1" style="stop-color:#99999A"/>
	</linearGradient>
	<path fill="url(#SVGID_2_)" d="M126.395,15.224c-1.728,0-3.041,0.691-3.871,2.165h-0.046V15.5h-1.844v11.91h1.96v-6.726
		c0-2.144,1.151-3.732,3.524-3.732c1.495,0,2.419,0.922,2.419,2.396v8.062h1.958v-7.832
		C130.495,17.02,129.527,15.224,126.395,15.224z"/>
	<linearGradient id="SVGID_3_" gradientUnits="userSpaceOnUse" x1="137.959" y1="27.6855" x2="137.959" y2="15.2236">
		<stop  offset="0" style="stop-color:#99999A;stop-opacity:0.5"/>
		<stop  offset="1" style="stop-color:#99999A"/>
	</linearGradient>
	<path fill="url(#SVGID_3_)" d="M143.557,25.844c-0.207,0.069-0.416,0.114-0.6,0.114c-0.622,0-0.622-0.414-0.622-1.336v-6.126
		c0-2.789-2.326-3.272-4.468-3.272c-2.673,0-4.93,1.036-5.044,3.984h1.956c0.093-1.75,1.313-2.257,2.971-2.257
		c1.223,0,2.651,0.254,2.651,1.981c0,1.496-1.866,1.313-4.01,1.75c-2.027,0.368-4.031,0.968-4.031,3.664
		c0,2.396,1.775,3.339,3.938,3.339c1.659,0,3.11-0.552,4.194-1.842c0,1.29,0.644,1.842,1.658,1.842c0.575,0,1.059-0.114,1.406-0.321
		h-0.001V25.844z M140.378,23.264c0,1.106-1.059,2.694-3.639,2.694c-1.198,0-2.304-0.46-2.304-1.75c0-2.926,4.422-1.82,5.942-2.948
		V23.264z"/>
	<linearGradient id="SVGID_4_" gradientUnits="userSpaceOnUse" x1="146.4736" y1="27.4102" x2="146.4736" y2="10.9619">
		<stop  offset="0" style="stop-color:#99999A;stop-opacity:0.5"/>
		<stop  offset="1" style="stop-color:#99999A"/>
	</linearGradient>
	<rect x="145.494" y="10.962" fill="url(#SVGID_4_)" width="1.958" height="16.448"/>
	<linearGradient id="SVGID_5_" gradientUnits="userSpaceOnUse" x1="157.5771" y1="32.1787" x2="157.5771" y2="11.9297">
		<stop  offset="0" style="stop-color:#99999A;stop-opacity:0.5"/>
		<stop  offset="1" style="stop-color:#99999A"/>
	</linearGradient>
	<path fill="url(#SVGID_5_)" d="M163.579,11.93h-1.96v3.57h-2.025v0.002h-1.314l-3.342,9.744h-0.045l-3.48-9.744h-2.21l4.724,11.84
		l-0.808,2.026c-0.369,0.715-0.807,1.084-1.613,1.084c-0.39,0-0.782-0.162-1.149-0.276v1.796c0.436,0.161,0.896,0.207,1.358,0.207
		c1.749,0,2.534-0.876,3.454-3.178l4.521-11.773h1.931v7.579c0,2.188,0.808,2.604,2.833,2.604h1.499v-1.728h-0.899
		c-1.221,0-1.473-0.139-1.473-1.061v-7.395h2.372V15.5h-2.372V11.93z"/>
	<linearGradient id="SVGID_6_" gradientUnits="userSpaceOnUse" x1="169.2568" y1="27.4102" x2="169.2568" y2="15.5">
		<stop  offset="0" style="stop-color:#99999A;stop-opacity:0.5"/>
		<stop  offset="1" style="stop-color:#99999A"/>
	</linearGradient>
	<rect x="168.279" y="15.5" fill="url(#SVGID_6_)" width="1.956" height="11.91"/>
	<linearGradient id="SVGID_7_" gradientUnits="userSpaceOnUse" x1="169.2568" y1="13.3584" x2="169.2568" y2="10.9619">
		<stop  offset="0" style="stop-color:#99999A;stop-opacity:0.5"/>
		<stop  offset="1" style="stop-color:#99999A"/>
	</linearGradient>
	<rect x="168.279" y="10.962" fill="url(#SVGID_7_)" width="1.956" height="2.396"/>
	<linearGradient id="SVGID_8_" gradientUnits="userSpaceOnUse" x1="177.4697" y1="27.6855" x2="177.4697" y2="15.2236">
		<stop  offset="0" style="stop-color:#99999A;stop-opacity:0.5"/>
		<stop  offset="1" style="stop-color:#99999A"/>
	</linearGradient>
	<path fill="url(#SVGID_8_)" d="M177.608,25.958c-2.488,0-3.479-2.142-3.479-4.354c0-2.396,0.875-4.652,3.707-4.652
		c1.639,0,2.651,0.875,2.95,2.372h2.029c-0.3-2.834-2.421-4.101-5.136-4.101c-3.779,0-5.623,2.81-5.623,6.38
		c0,3.571,1.936,6.082,5.575,6.082c3.016,0,4.812-1.705,5.251-4.63h-2.005C180.626,24.876,179.521,25.958,177.608,25.958z"/>
	<linearGradient id="SVGID_9_" gradientUnits="userSpaceOnUse" x1="189.3232" y1="27.6875" x2="189.3232" y2="15.2256">
		<stop  offset="0" style="stop-color:#99999A;stop-opacity:0.5"/>
		<stop  offset="1" style="stop-color:#99999A"/>
	</linearGradient>
	<path fill="url(#SVGID_9_)" d="M190.486,20.546c-1.819-0.414-3.894-0.69-3.894-2.073c0-1.197,1.358-1.521,2.535-1.521
		c1.266,0,2.648,0.483,2.764,2.005h1.957c-0.183-2.903-2.21-3.731-4.882-3.731c-2.095,0-4.446,0.99-4.446,3.387
		c0,4.583,7.785,2.51,7.785,5.572c0,1.498-1.657,1.773-2.881,1.773c-1.588,0-3.131-0.552-3.2-2.303h-1.957
		c0.115,2.95,2.372,4.032,5.044,4.032c2.419,0,5.067-0.897,5.067-3.755C194.379,21.651,192.444,20.984,190.486,20.546z"/>
</g>
<text transform="matrix(1 0 0 1 184.1328 10.9619)" opacity="0.6"><tspan x="0" y="0" fill="#999999" font-family="'HelveticaNeueLTPro-ExO'" font-size="13">ß</tspan><tspan x="8.944" y="0" fill="#999999" font-family="'HelveticaNeueLTPro-ExO'" font-size="13">e</tspan><tspan x="17.29" y="0" fill="#999999" font-family="'HelveticaNeueLTPro-ExO'" font-size="13">t</tspan><tspan x="22.425" y="0" fill="#999999" font-family="'HelveticaNeueLTPro-ExO'" font-size="13">a</tspan></text>
</svg>
