<?xml version="1.0" encoding="utf-8"?>
<!-- Generator: Adobe Illustrator 16.0.0, SVG Export Plug-In . SVG Version: 6.00 Build 0)  -->
<!DOCTYPE svg PUBLIC "-//W3C//DTD SVG 1.1//EN" "http://www.w3.org/Graphics/SVG/1.1/DTD/svg11.dtd">
<svg version="1.1" id="Layer_1" xmlns="http://www.w3.org/2000/svg" xmlns:xlink="http://www.w3.org/1999/xlink" x="0px" y="0px"
	 width="137.931px" height="26.786px" viewBox="0 0 137.931 26.786" enable-background="new 0 0 137.931 26.786"
	 xml:space="preserve">
<g>
	<path fill="#FFFFFF" d="M10.757,1.049H4.656H2.348H2.026c-0.542,0-0.979,0.437-0.979,0.979v0.31V23.96v0.539
		c0,0.541,0.438,0.981,0.979,0.981h2.63c0.541,0,0.979-0.44,0.979-0.981V23.96h0.008v-6.713h5.424c4.84,0,8.237-3.123,8.237-7.964
		C19.304,4.549,16.49,1.049,10.757,1.049z M10.208,13.403H5.644V4.893h4.394c2.644,0,4.462,0.995,4.462,4.391
		C14.499,11.686,13.093,13.403,10.208,13.403z"/>
	<path fill="#FFFFFF" d="M36.896,9.908h-0.002V9.104c0-0.54-0.438-0.979-0.978-0.979H33.69c-0.54,0-0.979,0.438-0.979,0.979v0.805
		h-0.003v7.542c0,2.096-0.96,4.396-4.116,4.396c-2.117,0-3.078-1.021-3.089-3.392V9.104c0-0.54-0.439-0.979-0.981-0.979h-2.223
		c-0.542,0-0.981,0.438-0.981,0.979v0.389h-0.003v10.122c0,5.045,3.398,6.278,6.35,6.278c2.367,0,4.049-0.927,4.976-2.128h0.068
		v0.689h0.003v0.045c0,0.541,0.439,0.981,0.979,0.981h2.225c0.541,0,0.978-0.44,0.978-0.981v-0.045h0.002V9.908z"/>
	<path fill="#FFFFFF" d="M48.81,7.706c-2.061,0-3.672,0.721-4.942,1.886V3.706h0.002V2.024c0-0.54-0.441-0.979-0.982-0.979h-2.228
		c-0.542,0-0.982,0.438-0.982,0.979v1.682h0.004v18.038h-0.004v2.755c0,0.541,0.439,0.981,0.982,0.981h2.228
		c0.541,0,0.982-0.44,0.982-0.981V23.8h0.068c1.028,1.235,2.368,2.093,4.873,2.093c4.463,0,7.554-4.083,7.554-9.093
		S53.272,7.706,48.81,7.706z M47.849,22.051c-3.157,0-4.083-2.746-4.119-5.251c0.035-2.505,0.961-5.251,4.119-5.251
		c3.158,0,4.084,2.746,4.118,5.251C51.934,19.305,51.007,22.051,47.849,22.051z"/>
	<path fill="#009BDE" d="M81.94,2.018l-0.008-0.007c-0.01-0.534-0.442-0.962-0.979-0.962h-0.061h-5.008h-0.041v0.004
		c-0.46,0.019-0.838,0.352-0.922,0.793l-4.272,18.146h-0.07L66.298,1.843c-0.002-0.013-0.006-0.023-0.009-0.036L66.276,1.75h-0.004
		c-0.117-0.395-0.473-0.684-0.902-0.698V1.049h-0.032h-5.3h-0.013c-0.528,0-0.953,0.414-0.976,0.937l-0.003,0.003v0.034
		c0,0.002,0,0.004,0,0.006v22.471c0,0.541,0.438,0.981,0.98,0.981h2.469c0.541,0,0.98-0.44,0.98-0.981v-0.236h0.001V5.32l0.121-0.01
		l4.515,19.157h0l0.007,0.031c0.123,0.529,0.453,0.962,0.977,0.979v0.006h2.835l0.005-0.006c0.527-0.014,0.841-0.447,0.967-0.979
		l0.027-0.116l0.003-0.004l0.889-3.771l1.676-7.097h-0.004l1.984-8.414h0.07v0.224L77.54,5.32v19.179
		c0,0.541,0.44,0.981,0.981,0.981h2.432c0.542,0,0.98-0.44,0.98-0.981v-0.251h0.007V2.018z"/>
	<path fill="#009BDE" d="M110.868,8.116h-2.137V2.955c0-0.542-0.438-0.981-0.979-0.981h-2.226c-0.543,0-0.98,0.439-0.98,0.981v5.161
		h-2.144c-0.435,0-0.789,0.353-0.789,0.786v1.768c0,0.437,0.354,0.788,0.789,0.788h2.144v13.041c0,0.541,0.437,0.981,0.98,0.981
		h2.226c0.541,0,0.979-0.44,0.979-0.981V11.458h2.137c0.439,0,0.791-0.352,0.791-0.788V8.902
		C111.658,8.469,111.307,8.116,110.868,8.116z"/>
	<g>
		<g>
			<path fill="#009BDE" d="M118.216,24.499c0,0.541-0.439,0.981-0.982,0.981h-2.223c-0.542,0-0.979-0.44-0.979-0.981V9.101
				c0-0.542,0.438-0.98,0.979-0.98h2.223c0.542,0,0.982,0.438,0.982,0.98V24.499z"/>
		</g>
		<g>
			<ellipse fill="#009BDE" cx="116.114" cy="3.171" rx="2.15" ry="2.278"/>
		</g>
	</g>
	<path fill="#009BDE" d="M135.807,18.886h-1.763c-0.667,0-1.041,0.419-1.387,1.05l-0.042,0.085c-0.718,1.219-1.937,2.03-3.317,2.03
		c-2.999,0-4.509-2.541-4.509-5.251s1.511-5.251,4.509-5.251c1.381,0,2.599,0.812,3.317,2.031l0.042,0.084
		c0.346,0.631,0.72,1.049,1.387,1.049h1.763c0.846,0,1.197-0.532,1.041-1.229l-0.008-0.031c-0.178-0.693-0.428-1.328-0.739-1.909
		l-0.046-0.113c-1.186-2.074-3.206-3.725-6.757-3.725c-5.641,0-8.903,3.912-8.903,9.094s3.262,9.093,8.903,9.093
		c3.551,0,5.571-1.647,6.757-3.725l0.046-0.111c0.311-0.582,0.561-1.22,0.739-1.909l0.008-0.032
		C137.004,19.419,136.653,18.886,135.807,18.886z"/>
	<path fill="#009BDE" d="M100.015,13.403c0-4.942-3.742-5.697-7.482-5.697c-3.588,0-6.991,1.398-7.376,4.97l-0.002,0.001
		c0,0.002,0,0.004,0,0.006c-0.001,0.007-0.002,0.013-0.003,0.02l0.002,0.01c-0.023,0.524,0.115,0.938,0.891,0.989l2.213,0.13
		c0.297,0.018,0.568-0.104,0.76-0.303h0.009l0.013-0.022c0.106-0.119,0.186-0.26,0.224-0.42l0.005-0.01
		c0.225-1.634,1.13-2.145,3.264-2.145c1.819,0,3.293,0.48,3.293,2.195v0.515c-1.063,0.378-3.02,0.722-4.531,1.03l-1.75,0.342
		c-2.574,0.516-5.284,2.026-5.284,5.423c0,3.363,2.607,5.456,5.902,5.456c2.163,0,4.051-0.686,5.663-1.989
		c0,0.006,0.002,0.01,0.002,0.014v0.582c0,0.541,0.439,0.981,0.98,0.981h1.214l0.001,0.003l0.002-0.003h1.007
		c0.542,0,0.98-0.44,0.98-0.981v-2.117l0.001-0.001V13.403z M95.826,19.271c0,2.229-2.505,3.192-4.461,3.192
		c-1.511,0-2.711-0.859-2.711-2.166c0-1.645,1.304-2.093,2.883-2.399l2.301-0.482c0.755-0.136,1.441-0.343,1.989-0.616V19.271z"/>
</g>
</svg>
