<?xml version="1.0" encoding="utf-8"?>
<!-- Generated by IcoMoon.io -->
<!DOCTYPE svg PUBLIC "-//W3C//DTD SVG 1.1//EN" "http://www.w3.org/Graphics/SVG/1.1/DTD/svg11.dtd">
<svg version="1.1" xmlns="http://www.w3.org/2000/svg" xmlns:xlink="http://www.w3.org/1999/xlink" width="16" height="16" viewBox="0 0 16 16">
<g id="icomoon-ignore">
	<line stroke-width="1" x1="" y1="" x2="" y2="" stroke="#449FDB" opacity=""></line>
</g>
	<path d="M0.552 9.066l1.090 0.27 0.821-1.29-1.56-0.386c-0.39-0.098-0.785 0.139-0.882 0.528-0.097 0.387 0.141 0.781 0.53 0.878zM14.785 9.274l-3.57 3.214-4.198-3.249c-0.080-0.062-0.172-0.106-0.27-0.131l-0.559-0.138-0.821 1.289 0.879 0.217 4.558 3.526c0.132 0.103 0.289 0.153 0.446 0.153 0.175 0 0.35-0.062 0.488-0.187l4.022-3.62c0.298-0.269 0.321-0.726 0.052-1.023s-0.728-0.32-1.026-0.051zM6.947 5.745l3.91 2.503c0.33 0.21 0.768 0.123 0.991-0.198l4.022-5.794c0.228-0.33 0.146-0.78-0.185-1.008s-0.783-0.145-1.012 0.184l-3.622 5.218-3.934-2.518c-0.162-0.104-0.36-0.139-0.55-0.098s-0.354 0.156-0.457 0.319l-5.998 9.415c-0.216 0.338-0.115 0.784 0.224 0.998 0.121 0.077 0.256 0.113 0.39 0.113 0.241 0 0.476-0.118 0.614-0.336l5.606-8.799z" fill="#000000"></path>
</svg>
